<svg width="1437" height="1787" viewBox="0 0 1437 1787" fill="none" xmlns="http://www.w3.org/2000/svg">
  <ellipse cx="722.301" cy="1668.9" rx="440.984" ry="117.849" fill="#D2D2F9"/>
  <mask id="mask0_33_357" style="mask-type:alpha" maskUnits="userSpaceOnUse" x="99" y="0" width="1239" height="1146">
    <path d="M1111.17 998.643C1061.42 1121.58 948.544 1196.83 853.123 1104.73C823.925 1076.54 785.309 1053.04 714.698 1053.04C646.649 1053.04 609.281 1074.98 581.644 1101.9C486.578 1194.49 375.636 1121.7 325.88 998.679L122.253 495.191C107.702 459.212 97.3572 420.961 99.4337 382.206C117.162 51.3337 528.062 -5.93823 737.431 0.458198C954.736 1.95603 1320.86 70.7269 1337.57 382.654C1339.64 421.436 1329.29 459.656 1314.72 495.658L1111.17 998.643Z" fill="#D2D2F9"/>
  </mask>
  <g mask="url(#mask0_33_357)">
    <path d="M1264.33 1252.97C1090.91 1283.46 902.894 1300.14 706.495 1300.14C510.575 1300.14 322.998 1283.54 149.924 1253.19L69.931 418.459C38.8282 -4.37546 498.634 -75.3851 726.608 -67.9227C963.989 -66.1696 1373.68 19.0351 1344.26 418.937L1264.33 1252.97Z" fill="#A5A6F6"/>
    <path d="M435.98 -33.6589C478.707 62.3626 424.165 315.504 106.432 272.253" stroke="#7879F1" stroke-width="56.0415" stroke-linecap="round"/>
    <path d="M578.787 -91.0839C650.204 69.4111 559.039 492.525 27.9645 420.232" stroke="#7879F1" stroke-width="56.0415" stroke-linecap="round"/>
    <path d="M1046.21 -33.6592C1003.49 62.3624 1058.03 315.504 1375.76 272.253" stroke="#7879F1" stroke-width="56.0415" stroke-linecap="round"/>
    <path d="M903.402 -91.0839C831.986 69.4111 923.15 492.525 1454.22 420.232" stroke="#7879F1" stroke-width="56.0415" stroke-linecap="round"/>
    <path d="M37.5742 580.347C269.746 583.55 735.531 509.415 741.295 187.256C741.295 363.387 931.036 688.587 1690 580.347" stroke="#7879F1" stroke-width="56.0415" stroke-linecap="square" stroke-linejoin="round"/>
    <path d="M35.9814 760.059C268.153 762.26 733.938 711.306 739.702 489.88C739.702 610.938 929.443 834.454 1688.4 760.059" stroke="#7879F1" stroke-width="56.0415" stroke-linecap="square" stroke-linejoin="round"/>
  </g>
  <path fill-rule="evenodd" clip-rule="evenodd" d="M1437 729.905L720.406 1668.13L0 729.905L720.406 936.622L1437 729.905Z" fill="#8A8BF3"/>
</svg>
